<svg width="1440" height="1024" viewBox="0 0 1440 1024" fill="none" xmlns="http://www.w3.org/2000/svg">
<rect width="1440" height="1024" fill="#1E1E1E"/>
<g clip-path="url(#clip0_0_1)">
<rect width="1440" height="1024" fill="white"/>
<rect x="207" y="941.538" width="140" height="140" rx="10" transform="rotate(-20.2855 207 941.538)" fill="#7D29EA" fill-opacity="0.5"/>
<rect x="1186" y="710" width="180" height="180" rx="10" transform="rotate(30 1186 710)" fill="#7D29EA" fill-opacity="0.53"/>
<rect x="387" y="651.934" width="40" height="40" rx="9" transform="rotate(-48.4475 387 651.934)" fill="#7D29EA" fill-opacity="0.39"/>
<rect x="61" y="12.9339" width="40" height="40" rx="9" transform="rotate(-48.4475 61 12.9339)" fill="#7D29EA" fill-opacity="0.39"/>
<rect x="1066" y="121.934" width="40" height="40" rx="14" transform="rotate(-48.4475 1066 121.934)" fill="#9554E8" fill-opacity="0.25"/>
<rect x="117" y="504.044" width="60" height="60" rx="9" transform="rotate(-71.9405 117 504.044)" fill="#7D29EA" fill-opacity="0.39"/>
<rect x="1261" y="354.044" width="60" height="60" rx="9" transform="rotate(-71.9405 1261 354.044)" fill="#7D29EA" fill-opacity="0.39"/>
<rect x="639.299" y="762.922" width="80" height="80" rx="9" transform="rotate(-113.032 639.299 762.922)" fill="#7D29EA" fill-opacity="0.6"/>
<rect x="271" y="196.023" width="140" height="140" rx="34" transform="rotate(-65.1362 271 196.023)" fill="#7D29EA" fill-opacity="0.2"/>
<rect x="720.424" y="140.075" width="180" height="180" rx="71" transform="rotate(-113.032 720.424 140.075)" fill="#7D29EA" fill-opacity="0.2"/>
</g>
<defs>
<clipPath id="clip0_0_1">
<rect width="1440" height="1024" fill="white"/>
</clipPath>
</defs>
</svg>
